<?xml version="1.0" encoding="UTF-8" standalone="no"?>
<!-- Created with Inkscape (http://www.inkscape.org/) -->

<svg
   xmlns:dc="http://purl.org/dc/elements/1.1/"
   xmlns:cc="http://creativecommons.org/ns#"
   xmlns:rdf="http://www.w3.org/1999/02/22-rdf-syntax-ns#"
   xmlns:svg="http://www.w3.org/2000/svg"
   xmlns="http://www.w3.org/2000/svg"
   xmlns:sodipodi="http://sodipodi.sourceforge.net/DTD/sodipodi-0.dtd"
   xmlns:inkscape="http://www.inkscape.org/namespaces/inkscape"
   width="80"
   height="80"
   viewBox="0 0 21.166666 21.166667"
   version="1.1"
   id="svg8"
   inkscape:version="0.92.2 (5c3e80d, 2017-08-06)"
   sodipodi:docname="03d.svg">
  <defs
     id="defs2" />
  <sodipodi:namedview
     id="base"
     pagecolor="#777777"
     bordercolor="#666666"
     borderopacity="1.0"
     inkscape:pageopacity="0"
     inkscape:pageshadow="2"
     inkscape:zoom="5.6"
     inkscape:cx="10.723914"
     inkscape:cy="42.900966"
     inkscape:document-units="mm"
     inkscape:current-layer="layer1"
     showgrid="false"
     units="px"
     inkscape:window-width="1920"
     inkscape:window-height="1017"
     inkscape:window-x="-8"
     inkscape:window-y="-8"
     inkscape:window-maximized="1" />
  <metadata
     id="metadata5">
    <rdf:RDF>
      <cc:Work
         rdf:about="">
        <dc:format>image/svg+xml</dc:format>
        <dc:type
           rdf:resource="http://purl.org/dc/dcmitype/StillImage" />
        <dc:title></dc:title>
      </cc:Work>
    </rdf:RDF>
  </metadata>
  <g
     inkscape:label="Layer 1"
     inkscape:groupmode="layer"
     id="layer1"
     transform="translate(0,-275.83332)">
    <g
       transform="matrix(0.15399801,0,0,0.15399801,-5.6816423,260.98399)"
       id="layer1-0"
       inkscape:label="Layer 1">
      <g
         transform="matrix(0.26458333,0,0,0.26458333,35.967244,106.85722)"
         id="g4669">
        <g
           transform="translate(-59.507575,71.62942)"
           id="g4783">
          <g
             transform="translate(9.7652932,-117.84962)"
             id="g4903">
            <g
               transform="translate(3.0304577,-164.65487)"
               id="g4856">
              <g
                 transform="translate(137.38075,173.74624)"
                 style="fill:#eeefee;fill-opacity:1"
                 id="g4854">
                <g
                   transform="translate(-104.34471,5.6015146)"
                   id="g5175">
                  <path
                     style="clip-rule:evenodd;fill:#ffffff;fill-opacity:1;fill-rule:evenodd"
                     inkscape:connector-curvature="0"
                     d="m 422.22335,153.93909 c -5.312,0 -10.562,0.375 -15.792,1.125 -29.874,-40.708 -77.02,-65.125003 -128.208,-65.125003 -51.188,0 -98.31199,24.417003 -128.20799,65.125003 -5.23,-0.75 -10.48,-1.125 -15.792,-1.125 -61.750003,0 -112.000003,50.25 -112.000003,112 0,61.75 50.25,112 112.000003,112 13.688,0 27.084,-2.5 39.709,-7.333 28.95699,25.25 65.79099,39.333 104.29099,39.333 38.542,0 75.333,-14.083 104.291,-39.333 12.625,4.833 26.021,7.333 39.709,7.333 61.75,0 112,-50.25 112,-112 0,-61.75 -50.25,-112 -112,-112 z m 0,192 c -17.125,0 -32.916,-5.5 -45.938,-14.667 -23.478,28.291 -58.438,46.667 -98.062,46.667 -39.625,0 -74.584,-18.376 -98.06199,-46.667 -13,9.167 -28.813,14.667 -45.938,14.667 -44.188004,0 -80.000003,-35.812 -80.000003,-80 0,-44.188 35.811999,-80 80.000003,-80 10.812,0 21.062,2.208 30.438,6.083 21.229,-41.416 63.85299,-70.083 113.56199,-70.083 49.709,0 92.334,28.667 113.541,70.083 9.397,-3.875 19.668,-6.083 30.459,-6.083 44.188,0 80,35.812 80,80 0,44.188 -35.812,80 -80,80 z"
                     id="path5130" />
                </g>
              </g>
            </g>
          </g>
        </g>
      </g>
    </g>
  </g>
</svg>
