<?xml version="1.0" encoding="UTF-8" standalone="no"?>
<!-- Created with Inkscape (http://www.inkscape.org/) -->

<svg
   xmlns:dc="http://purl.org/dc/elements/1.1/"
   xmlns:cc="http://creativecommons.org/ns#"
   xmlns:rdf="http://www.w3.org/1999/02/22-rdf-syntax-ns#"
   xmlns:svg="http://www.w3.org/2000/svg"
   xmlns="http://www.w3.org/2000/svg"
   xmlns:sodipodi="http://sodipodi.sourceforge.net/DTD/sodipodi-0.dtd"
   xmlns:inkscape="http://www.inkscape.org/namespaces/inkscape"
   width="80"
   height="80"
   viewBox="0 0 21.166666 21.166667"
   version="1.1"
   id="svg8"
   inkscape:version="0.92.2 (5c3e80d, 2017-08-06)"
   sodipodi:docname="04n.svg">
  <defs
     id="defs2" />
  <sodipodi:namedview
     id="base"
     pagecolor="#777777"
     bordercolor="#666666"
     borderopacity="1.0"
     inkscape:pageopacity="0"
     inkscape:pageshadow="2"
     inkscape:zoom="7.9195959"
     inkscape:cx="70.367983"
     inkscape:cy="38.297167"
     inkscape:document-units="mm"
     inkscape:current-layer="g4669"
     showgrid="false"
     units="px"
     inkscape:window-width="1920"
     inkscape:window-height="1017"
     inkscape:window-x="-8"
     inkscape:window-y="-8"
     inkscape:window-maximized="1" />
  <metadata
     id="metadata5">
    <rdf:RDF>
      <cc:Work
         rdf:about="">
        <dc:format>image/svg+xml</dc:format>
        <dc:type
           rdf:resource="http://purl.org/dc/dcmitype/StillImage" />
        <dc:title></dc:title>
      </cc:Work>
    </rdf:RDF>
  </metadata>
  <g
     inkscape:label="Layer 1"
     inkscape:groupmode="layer"
     id="layer1"
     transform="translate(0,-275.83332)">
    <g
       transform="matrix(0.15337826,0,0,0.15337826,-4.7044758,260.49301)"
       id="layer1-7"
       inkscape:label="Layer 1">
      <g
         transform="matrix(0.26458333,0,0,0.26458333,35.967244,106.85722)"
         id="g4669">
        <g
           transform="translate(-59.507575,71.62942)"
           id="g4783">
          <g
             transform="translate(9.7652932,-117.84962)"
             id="g4903">
            <g
               transform="translate(3.0304577,-164.65487)"
               id="g4856">
              <g
                 transform="translate(137.38075,173.74624)"
                 style="fill:#eeefee;fill-opacity:1"
                 id="g4854">
                <g
                   transform="translate(-104.34471,5.6015146)"
                   id="g5175">
                  <g
                     transform="translate(-292.36549,-91.527994)"
                     id="g5289">
                    <path
                       style="fill:#fefefe;fill-opacity:1;stroke:#fcfcfc;stroke-opacity:1"
                       inkscape:connector-curvature="0"
                       d="m 801.91379,288.48832 c 0,-49.167 -40,-89.146 -89.167,-89.146 -2.396,0 -4.771,0.104 -7.146,0.291 -23.125,-28.854 -57.979,-45.978 -95.688,-45.978 -37.688,0 -72.562,17.124 -95.688,45.979 -2.375,-0.188 -4.771,-0.291 -7.188,-0.291 -49.123,-0.001 -89.123,39.978 -89.123,89.145 0,5.146 0.688,10.104 1.5,15.042 -0.542,0.708 -1.188,1.354 -1.708,2.083 -5.229,-0.75 -10.479,-1.125 -15.792,-1.125 -61.75,0 -112,50.249 -112,111.999 0,61.751 50.25,112 112,112 13.688,0 27.084,-2.5 39.709,-7.333 28.957,25.25 65.791,39.333 104.291,39.333 38.542,0 75.333,-14.083 104.291,-39.333 12.625,4.833 26.021,7.333 39.709,7.333 61.75,0 112,-50.249 112,-112 0,-25.688 -9.042,-49.083 -23.666,-67.999 14.582,-15.896 23.666,-36.833 23.666,-60 z m -112,207.999 c -17.125,0 -32.916,-5.499 -45.938,-14.666 -23.479,28.291 -58.438,46.666 -98.062,46.666 -39.625,0 -74.584,-18.375 -98.062,-46.666 -13,9.167 -28.812,14.666 -45.938,14.666 -44.188,0 -80,-35.812 -80,-80 0,-44.188 35.812,-79.999 80,-79.999 10.812,0 21.062,2.188 30.438,6.062 0.562,-1.062 1.25,-2 1.812,-3.021 5.625,-10.271 12.562,-19.688 20.666,-28.042 23.084,-23.916 55.167,-39 91.084,-39 49.709,0 92.334,28.666 113.541,70.062 5.646,-2.312 11.668,-3.813 17.875,-4.812 l 12.584,-1.25 c 12.334,0 23.875,3.042 34.312,8 11.312,5.416 21.021,13.374 28.646,23.188 10.5,13.521 17.042,30.354 17.042,48.812 0,44.188 -35.812,80 -80,80 z m 65.562,-170.375 c -18.479,-13.458 -41,-21.624 -65.562,-21.624 -5.312,0 -10.562,0.375 -15.792,1.125 -29.874,-40.708 -77.021,-65.125 -128.208,-65.125 -34.125,0 -66.312,11.042 -92.938,30.334 7.479,-22.854 28.729,-39.479 54.062,-39.479 7.75,0 15.062,1.562 21.75,4.332 15.188,-29.562 45.625,-50.02 81.125,-50.02 35.5,0 65.958,20.457 81.084,50.02 6.729,-2.77 14.083,-4.332 21.749,-4.332 31.584,0 57.167,25.583 57.167,57.146 10e-4,14.478 -5.561,27.54 -14.437,37.623 z"
                       id="path5244" />
                    <path
                       transform="translate(314.58885,181.46708)"
                       inkscape:connector-curvature="0"
                       id="path5299"
                       d="m 452.54304,155.09263 c -10.78051,-10.78926 -10.81146,-10.82655 -9.95592,-11.99556 8.66573,-11.8409 12.23449,-21.26578 12.77955,-33.75007 0.71482,-16.372504 -4.99492,-30.979668 -16.70682,-42.740864 -10.54238,-10.586753 -23.20151,-16.127298 -38.17587,-16.708504 -7.5921,-0.294672 -13.18381,0.431931 -20.01271,2.600506 -2.16429,0.687293 -3.96839,1.201996 -4.0091,1.143781 -0.0407,-0.05822 -0.71912,-1.242266 -1.50757,-2.631225 C 361.67655,27.619722 339.16176,11.055873 313.55031,5.8363409 275.50108,-1.9179713 236.94718,15.312385 216.79847,49.076287 c -1.54665,2.591779 -2.85792,4.712326 -2.91393,4.712326 -0.056,0 -1.78947,-0.575534 -3.85212,-1.278969 -13.97808,-4.766996 -30.95978,-3.280011 -44.4089,3.888607 -11.47462,6.116181 -21.06347,16.834844 -26.0615,29.132219 -1.02407,2.519674 -2.8623,4.482658 -17.66005,18.85857 -9.08435,8.82538 -16.68651,15.94139 -16.89369,15.81335 -0.77462,-0.47875 -1.64768,-12.08506 -1.31773,-17.51771 2.59068,-42.65488 33.26758,-76.677656 75.31749,-83.532226 2.84973,-0.464537 8.49734,-0.861237 12.95973,-0.910319 l 7.90898,-0.08699 3.75425,-4.280352 c 29.61145,-33.76106 76.25473,-48.557032 120.08139,-38.091675 24.10332,5.755629 46.87952,19.3902885 62.91086,37.660732 l 4.47432,5.099252 3.3304,-0.328169 c 7.47112,-0.736185 21.79691,1.235664 31.30983,4.309592 6.63508,2.144003 18.00241,7.876463 23.69814,11.950797 19.7937,14.159025 33.20448,36.014999 36.69238,59.798722 1.16308,7.930976 0.78029,22.787806 -0.77226,29.972706 -3.07059,14.21012 -9.16807,26.98283 -18.38503,38.51207 -1.38799,1.7362 -2.76893,3.15673 -3.06875,3.15673 -0.29981,0 -5.41147,-4.87031 -11.35924,-10.82292 z"
                       style="opacity:1;fill:#8c8c8c;fill-opacity:1;stroke:#8b8b8b;stroke-width:2.67690444;stroke-miterlimit:4;stroke-dasharray:none;stroke-opacity:1;paint-order:markers fill stroke" />
                  </g>
                </g>
              </g>
            </g>
          </g>
        </g>
      </g>
    </g>
  </g>
</svg>
